<svg xmlns="http://www.w3.org/2000/svg" xmlns:xlink="http://www.w3.org/1999/xlink" width="250" zoomAndPan="magnify" viewBox="0 0 187.5 63.749997" height="85" preserveAspectRatio="xMidYMid meet" version="1.0"><defs><g/></defs><g fill="#2a68b2" fill-opacity="1"><g transform="translate(7.057138, 50.186158)"><g><path d="M 15.890625 -31.1875 L 16.71875 -26.671875 L 4.765625 -24.484375 L 6.09375 -17.21875 L 16.9375 -19.203125 L 17.765625 -14.734375 L 6.921875 -12.75 L 8.953125 -1.640625 L 3.546875 -0.65625 L -1.46875 -28.015625 Z M 15.890625 -31.1875 "/></g></g></g><g fill="#2a68b2" fill-opacity="1"><g transform="translate(28.620722, 46.32829)"><g><path d="M 9.015625 -1.265625 L 3.578125 -0.5 L -0.296875 -28.046875 L 5.140625 -28.8125 Z M 9.015625 -1.265625 "/></g></g></g><g fill="#2a68b2" fill-opacity="1"><g transform="translate(40.654976, 44.521142)"><g><path d="M 6.328125 -28.5625 L 8.609375 -5.484375 L 21.046875 -6.71875 L 21.5 -2.125 L 3.59375 -0.359375 L 0.859375 -28.03125 Z M 6.328125 -28.5625 "/></g></g></g><g fill="#2a68b2" fill-opacity="1"><g transform="translate(62.105266, 42.142925)"><g><path d="M 8.65625 -0.25 L 3.609375 -0.109375 L 2.78125 -27.90625 L 9.984375 -28.125 L 17.609375 -7.890625 L 18.015625 -7.90625 L 24.40625 -28.546875 L 31.421875 -28.75 L 32.25 -0.953125 L 27.046875 -0.796875 L 26.5 -19.15625 L 26.015625 -19.21875 L 20.140625 -0.59375 L 15.5625 -0.46875 L 8.59375 -18.703125 L 8.109375 -18.609375 Z M 8.65625 -0.25 "/></g></g></g><g fill="#2a68b2" fill-opacity="1"><g transform="translate(97.035226, 41.303772)"><g><path d="M 22.3125 -26.96875 L 22.140625 -22.375 L 10.015625 -22.84375 L 9.71875 -15.46875 L 20.71875 -15.046875 L 20.546875 -10.5 L 9.546875 -10.921875 L 9.109375 0.359375 L 3.609375 0.140625 L 4.6875 -27.65625 Z M 22.3125 -26.96875 "/></g></g></g><g fill="#2a68b2" fill-opacity="1"><g transform="translate(118.768762, 42.130082)"><g><path d="M 11.625 -26.875 L 9.5 -3.765625 L 21.9375 -2.609375 L 21.515625 1.984375 L 3.59375 0.328125 L 6.140625 -27.375 Z M 11.625 -26.875 "/></g></g></g><g fill="#2a68b2" fill-opacity="1"><g transform="translate(140.611452, 44.229895)"><g><path d="M 9.03125 1.203125 L 3.578125 0.484375 L 7.265625 -27.078125 L 12.71875 -26.359375 Z M 9.03125 1.203125 "/></g></g></g><g fill="#2a68b2" fill-opacity="1"><g transform="translate(152.649785, 45.688233)"><g><path d="M 6.015625 1.078125 L 0.46875 0.078125 L 11.109375 -12.546875 L 5.78125 -27.21875 L 11.53125 -26.1875 L 15.4375 -15.359375 L 15.90625 -15.265625 L 23.4375 -24.046875 L 28.90625 -23.0625 L 18.796875 -11.171875 L 24.390625 4.390625 L 18.65625 3.359375 L 14.46875 -8.296875 L 14.015625 -8.390625 Z M 6.015625 1.078125 "/></g></g></g></svg>